REM DIRINDEX 1\3,1\2\4,1\2\5,1\2\6
REM DIRNAME cjc137,folder01,folder02,folder03,folder04,folder05
TITLE ""
FILE "077.mp3" MP3
  TRACK 01 AUDIO
    TITLE "4:cjc137_3158"
    INDEX 01 00:00:00
  TRACK 02 AUDIO
    TITLE "0:"
    INDEX 01 00:01:03
  TRACK 03 AUDIO
    TITLE "6:cjc137_3159"
    INDEX 01 00:01:11
  TRACK 04 AUDIO
    TITLE "0:"
    INDEX 01 00:02:14
  TRACK 05 AUDIO
    TITLE "5:cjc137_3160"
    INDEX 01 00:02:20
  TRACK 06 AUDIO
    TITLE "0:"
    INDEX 01 00:03:23
  TRACK 07 AUDIO
    TITLE "4:cjc137_3161"
    INDEX 01 00:04:33
  TRACK 08 AUDIO
    TITLE "0:"
    INDEX 01 00:05:42
  TRACK 09 AUDIO
    TITLE "6:cjc137_3162"
    INDEX 01 00:05:46
  TRACK 10 AUDIO
    TITLE "0:"
    INDEX 01 00:06:61
  TRACK 11 AUDIO
    TITLE "5:cjc137_3163"
    INDEX 01 00:06:67
  TRACK 12 AUDIO
    TITLE "0:"
    INDEX 01 00:08:01
  TRACK 13 AUDIO
    TITLE "4:cjc137_3164"
    INDEX 01 00:09:06
  TRACK 14 AUDIO
    TITLE "0:"
    INDEX 01 00:10:10
  TRACK 15 AUDIO
    TITLE "6:cjc137_3165"
    INDEX 01 00:10:18
  TRACK 16 AUDIO
    TITLE "0:"
    INDEX 01 00:11:35
  TRACK 17 AUDIO
    TITLE "5:cjc137_3166"
    INDEX 01 00:11:39
  TRACK 18 AUDIO
    TITLE "0:"
    INDEX 01 00:12:42
  TRACK 19 AUDIO
    TITLE "4:cjc137_3167"
    INDEX 01 00:13:51
  TRACK 20 AUDIO
    TITLE "0:"
    INDEX 01 00:14:45
  TRACK 21 AUDIO
    TITLE "6:cjc137_3168"
    INDEX 01 00:14:53
  TRACK 22 AUDIO
    TITLE "0:"
    INDEX 01 00:15:40
  TRACK 23 AUDIO
    TITLE "5:cjc137_3169"
    INDEX 01 00:15:44
  TRACK 24 AUDIO
    TITLE "0:"
    INDEX 01 00:16:40
  TRACK 25 AUDIO
    TITLE "4:cjc137_3170"
    INDEX 01 00:17:49
  TRACK 26 AUDIO
    TITLE "0:"
    INDEX 01 00:18:66
  TRACK 27 AUDIO
    TITLE "6:cjc137_3171"
    INDEX 01 00:18:74
  TRACK 28 AUDIO
    TITLE "0:"
    INDEX 01 00:20:18
  TRACK 29 AUDIO
    TITLE "5:cjc137_3172"
    INDEX 01 00:20:22
  TRACK 30 AUDIO
    TITLE "0:"
    INDEX 01 00:21:41
  TRACK 31 AUDIO
    TITLE "4:cjc137_3173"
    INDEX 01 00:22:48
  TRACK 32 AUDIO
    TITLE "0:"
    INDEX 01 00:23:59
  TRACK 33 AUDIO
    TITLE "6:cjc137_3174"
    INDEX 01 00:23:63
  TRACK 34 AUDIO
    TITLE "0:"
    INDEX 01 00:24:49
  TRACK 35 AUDIO
    TITLE "5:cjc137_3175"
    INDEX 01 00:24:55
  TRACK 36 AUDIO
    TITLE "0:"
    INDEX 01 00:25:66
  TRACK 37 AUDIO
    TITLE "4:cjc137_3176"
    INDEX 01 00:26:71
  TRACK 38 AUDIO
    TITLE "0:"
    INDEX 01 00:27:71
  TRACK 39 AUDIO
    TITLE "6:cjc137_3177"
    INDEX 01 00:28:04
  TRACK 40 AUDIO
    TITLE "0:"
    INDEX 01 00:29:27
  TRACK 41 AUDIO
    TITLE "5:cjc137_3178"
    INDEX 01 00:29:33
  TRACK 42 AUDIO
    TITLE "0:"
    INDEX 01 00:30:32
  TRACK 43 AUDIO
    TITLE "4:cjc137_3179"
    INDEX 01 00:31:41
  TRACK 44 AUDIO
    TITLE "0:"
    INDEX 01 00:32:41
  TRACK 45 AUDIO
    TITLE "6:cjc137_3180"
    INDEX 01 00:32:48
  TRACK 46 AUDIO
    TITLE "0:"
    INDEX 01 00:33:36
  TRACK 47 AUDIO
    TITLE "5:cjc137_3181"
    INDEX 01 00:33:40
  TRACK 48 AUDIO
    TITLE "0:"
    INDEX 01 00:34:43
  TRACK 49 AUDIO
    TITLE "4:cjc137_3182"
    INDEX 01 00:35:49
  TRACK 50 AUDIO
    TITLE "0:"
    INDEX 01 00:36:48
  TRACK 51 AUDIO
    TITLE "6:cjc137_3183"
    INDEX 01 00:36:54
  TRACK 52 AUDIO
    TITLE "0:"
    INDEX 01 00:38:12
  TRACK 53 AUDIO
    TITLE "5:cjc137_3184"
    INDEX 01 00:38:16
  TRACK 54 AUDIO
    TITLE "0:"
    INDEX 01 00:39:17
  TRACK 55 AUDIO
    TITLE "4:cjc137_3185"
    INDEX 01 00:40:24
  TRACK 56 AUDIO
    TITLE "0:"
    INDEX 01 00:41:30
  TRACK 57 AUDIO
    TITLE "6:cjc137_3186"
    INDEX 01 00:41:38
  TRACK 58 AUDIO
    TITLE "0:"
    INDEX 01 00:42:66
  TRACK 59 AUDIO
    TITLE "5:cjc137_3187"
    INDEX 01 00:42:74
  TRACK 60 AUDIO
    TITLE "0:"
    INDEX 01 00:44:03
  TRACK 61 AUDIO
    TITLE "4:cjc137_3188"
    INDEX 01 00:45:12
  TRACK 62 AUDIO
    TITLE "0:"
    INDEX 01 00:46:37
  TRACK 63 AUDIO
    TITLE "6:cjc137_3189"
    INDEX 01 00:46:41
  TRACK 64 AUDIO
    TITLE "0:"
    INDEX 01 00:47:68
  TRACK 65 AUDIO
    TITLE "5:cjc137_3190"
    INDEX 01 00:47:74
  TRACK 66 AUDIO
    TITLE "0:"
    INDEX 01 00:49:21
  TRACK 67 AUDIO
    TITLE "4:cjc137_3191"
    INDEX 01 00:50:27
  TRACK 68 AUDIO
    TITLE "0:"
    INDEX 01 00:51:46
  TRACK 69 AUDIO
    TITLE "6:cjc137_3192"
    INDEX 01 00:51:54
  TRACK 70 AUDIO
    TITLE "0:"
    INDEX 01 00:52:69
  TRACK 71 AUDIO
    TITLE "5:cjc137_3193"
    INDEX 01 00:53:00
  TRACK 72 AUDIO
    TITLE "0:"
    INDEX 01 00:54:17
  TRACK 73 AUDIO
    TITLE "4:cjc137_3194"
    INDEX 01 00:55:26
  TRACK 74 AUDIO
    TITLE "0:"
    INDEX 01 00:56:39
  TRACK 75 AUDIO
    TITLE "6:cjc137_3195"
    INDEX 01 00:56:43
  TRACK 76 AUDIO
    TITLE "0:"
    INDEX 01 00:57:45
  TRACK 77 AUDIO
    TITLE "5:cjc137_3196"
    INDEX 01 00:57:54
  TRACK 78 AUDIO
    TITLE "0:"
    INDEX 01 00:58:67
  TRACK 79 AUDIO
    TITLE "4:cjc137_3197"
    INDEX 01 01:00:02
  TRACK 80 AUDIO
    TITLE "0:"
    INDEX 01 01:01:17
  TRACK 81 AUDIO
    TITLE "6:cjc137_3198"
    INDEX 01 01:01:23
  TRACK 82 AUDIO
    TITLE "0:"
    INDEX 01 01:02:24
  TRACK 83 AUDIO
    TITLE "5:cjc137_3199"
    INDEX 01 01:02:32
  TRACK 84 AUDIO
    TITLE "0:"
    INDEX 01 01:03:49
